HIERARCHY
ROOT Hips
{
	OFFSET 0.00000 0.00000 0.00000
	CHANNELS 6 Xposition Yposition Zposition Zrotation Yrotation Xrotation 
	JOINT LHipJoint
	{
		OFFSET 0 0 0
		CHANNELS 3 Zrotation Yrotation Xrotation
		JOINT LeftHip
		{
			OFFSET 1.75344 -1.53157 0.77399
			CHANNELS 3 Zrotation Yrotation Xrotation
			JOINT LeftKnee
			{
				OFFSET 2.25415 -6.19323 0.00000
				CHANNELS 3 Zrotation Yrotation Xrotation
				JOINT LeftAnkle
				{
					OFFSET 2.30342 -6.32861 0.00000
					CHANNELS 3 Zrotation Yrotation Xrotation
					JOINT LeftToe
					{
						OFFSET 0.10958 -0.30108 1.49206
						CHANNELS 3 Zrotation Yrotation Xrotation
						End Site
						{
							OFFSET 0.00000 -0.00000 0.77783
						}
					}
				}
			}
		}
	}
	JOINT RHipJoint
	{
		OFFSET 0 0 0
		CHANNELS 3 Zrotation Yrotation Xrotation
		JOINT RightHip
		{
			OFFSET -1.81912 -1.53156 0.77399
			CHANNELS 3 Zrotation Yrotation Xrotation
			JOINT RightKnee
			{
				OFFSET -2.22882 -6.12365 0.00000
				CHANNELS 3 Zrotation Yrotation Xrotation
				JOINT RightAnkle
				{
					OFFSET -2.21943 -6.09785 0.00000
					CHANNELS 3 Zrotation Yrotation Xrotation
					JOINT RightToe
					{
						OFFSET -0.18931 -0.52012 1.59379
						CHANNELS 3 Zrotation Yrotation Xrotation
						End Site
						{
							OFFSET -0.00000 -0.00000 0.84686
						}
					}
				}
			}
		}
	}
	JOINT lowerback
	{
		OFFSET 0 0 0
		CHANNELS 3 Zrotation Yrotation Xrotation
		JOINT Chest
		{
			OFFSET -0.00200 1.66634 -0.14248
			CHANNELS 3 Zrotation Yrotation Xrotation
			JOINT Chest2
			{
				OFFSET -0.00875 1.64542 0.09514
				CHANNELS 3 Zrotation Yrotation Xrotation
				JOINT lowerneck
				{
					OFFSET 0 0 0
					CHANNELS 3 Zrotation Yrotation Xrotation
					JOINT Neck
					{
						OFFSET 0.02257 1.59605 0.00839
						CHANNELS 3 Zrotation Yrotation Xrotation
						JOINT Head
						{
							OFFSET -0.10214 1.57530 -0.23335
							CHANNELS 3 Zrotation Yrotation Xrotation
							End Site
							{
								OFFSET -0.03588 1.60717 -0.08062
							}
						}
					}
				}
				JOINT LeftCollar
				{
					OFFSET 0 0 0
					CHANNELS 3 Zrotation Yrotation Xrotation
					JOINT LeftShoulder
					{
						OFFSET 2.54983 1.10186 0.40078
CHANNELS 3 Zrotation Xrotation Yrotation
						JOINT LeftElbow
						{
OFFSET 0 -4.288400 0.000000
CHANNELS 3 Zrotation Xrotation Yrotation
							JOINT LeftWrist
							{
OFFSET 0 -3.065520 -0.000000
CHANNELS 3 Zrotation Xrotation Yrotation
								JOINT lhand
								{
									OFFSET 0 0 0
CHANNELS 3 Zrotation Xrotation Yrotation
									JOINT LFingers
									{
OFFSET 0 -0.753040 0.000000
CHANNELS 3 Zrotation Xrotation Yrotation
										End Site
										{
OFFSET 0 -0.607120 0.000000
										}
									}
								}
								JOINT LThumb
								{
OFFSET 0 0.000000 0.000000
CHANNELS 3 Zrotation Xrotation Yrotation
									End Site
									{
OFFSET 0 -0.616390 0.616390
									}
								}
							}
						}
					}
				}
				JOINT RightCollar
				{
					OFFSET 0 0 0
					CHANNELS 3 Zrotation Yrotation Xrotation
					JOINT RightShoulder
					{
						OFFSET -2.60909 1.35448 0.21802
CHANNELS 3 Zrotation Xrotation Yrotation
						JOINT RightElbow
						{
OFFSET 0 -4.521720 -0.000000
CHANNELS 3 Zrotation Xrotation Yrotation
							JOINT RightWrist
							{
OFFSET 0 -2.891400 0.000000
CHANNELS 3 Zrotation Xrotation Yrotation
								JOINT rhand
								{
									OFFSET 0 0 0
CHANNELS 3 Zrotation Xrotation Yrotation
									JOINT RFingers
									{
OFFSET 0 -0.680540 0.000000
CHANNELS 3 Zrotation Xrotation Yrotation
										End Site
										{
OFFSET 0 -0.548670 0.000000
										}
									}
								}
								JOINT RThumb
								{
OFFSET 0 0.000000 0.000000
CHANNELS 3 Zrotation Xrotation Yrotation
									End Site
									{
OFFSET 0 -0.557050 0.557050
									}
								}
							}
						}
					}
				}
			}
		}
	}
}
MOTION
Frames: 4
Frame Time: 0.008333333333333333
9.205058 19.654357 1.922851 -177.830815 -2.587331 -161.438344 0.000000 0.000000 0.000000 -19.830406 -31.334371 -5.446500 1.962935 8.788359 25.135473 5.472763 4.878631 -46.097006 12.754735 18.691805 68.362029 0.000000 0.000000 0.000000 28.839493 10.738988 1.323925 -0.301270 -3.529093 9.755396 4.220145 -36.192887 -30.239187 -10.057099 -17.439540 59.675892 4.190149 1.054003 12.844138 0.360455 2.152579 -4.053108 -2.452809 0.717271 -11.531430 -6.400899 -2.963763 -10.958327 3.163157 -3.311650 3.880544 1.987144 -1.637248 3.419649 0.000000 0.000000 0.000000 96.893341 -27.117597 27.050647 21.064812 -31.903845 6.084226 -7.147291 15.418791 41.784256 0.000000 0.000000 0.000000 -7.125000 0.000000 0.000000 -21.459542 -9.544809 -26.486750 0.000000 0.000000 0.000000 -105.537466 -30.646108 -33.600873 -19.981875 -30.620304 -5.522182 6.233218 2.985798 49.053013 0.000000 0.000000 0.000000 7.125000 0.000000 0.000000 67.743805 67.689994 -44.100893
9.208729 19.715628 1.799883 -177.918626 -2.895351 -161.432715 0.000000 0.000000 0.000000 -19.122783 -32.754312 -6.558663 1.939731 8.739255 24.983137 5.768611 3.619784 -46.867339 12.779260 18.701037 68.438513 0.000000 0.000000 0.000000 28.445970 10.926814 -0.312821 -0.306495 -3.559218 9.839766 4.915509 -37.322520 -28.034770 -9.694076 -17.233498 58.459921 4.268639 0.960833 13.457095 0.409495 2.077434 -3.814129 -2.442829 0.680540 -11.632423 -6.483504 -3.138207 -11.247098 3.188055 -3.518502 3.987381 1.995833 -1.740088 3.527909 0.000000 0.000000 0.000000 95.714688 -28.738475 26.836651 20.923759 -31.739030 6.009876 -7.195157 14.924392 41.508671 0.000000 0.000000 0.000000 -7.125000 0.000000 0.000000 -21.479371 -9.282974 -26.434838 0.000000 0.000000 0.000000 -104.266910 -31.726251 -31.881891 -19.748264 -30.336469 -5.404320 0.560713 6.507269 52.519816 0.000000 0.000000 0.000000 7.125000 0.000000 0.000000 71.666350 70.993666 -51.714429
9.212948 19.773913 1.676672 -178.085043 -3.119584 -161.390524 0.000000 0.000000 0.000000 -18.420705 -34.014787 -7.779838 1.909886 8.675891 24.786561 6.053552 2.102573 -47.538165 12.800433 18.708928 68.504455 0.000000 0.000000 0.000000 27.899684 11.101357 -2.062234 -0.315558 -3.611096 9.985010 5.298581 -37.884667 -26.330750 -9.424527 -17.073097 57.546735 4.225199 0.881921 14.079559 0.423559 1.996257 -3.589348 -2.400248 0.647101 -11.756572 -6.799306 -3.203211 -11.145763 3.691292 -3.602570 3.644702 2.219989 -1.765481 3.418449 0.000000 0.000000 0.000000 94.624146 -30.582192 26.890951 20.700932 -31.477450 5.892993 -7.338994 14.997053 41.487185 0.000000 0.000000 0.000000 -7.125000 0.000000 0.000000 -21.546485 -9.256957 -26.521797 0.000000 0.000000 0.000000 -103.086050 -33.278151 -31.289351 -19.188774 -29.652048 -5.124067 2.873055 4.992714 51.667494 0.000000 0.000000 0.000000 7.125000 0.000000 0.000000 70.750117 69.909844 -49.553581
9.215918 19.828378 1.557427 -178.294800 -3.305474 -161.327032 0.000000 0.000000 0.000000 -17.655014 -35.173305 -9.145648 1.874384 8.599232 24.549585 6.220009 1.861216 -48.121432 12.787376 18.704038 68.463886 0.000000 0.000000 0.000000 27.264810 11.548127 -3.797912 -0.323960 -3.658273 10.117179 5.397306 -37.968030 -25.478523 -9.264941 -16.974912 57.001489 4.061512 0.815644 14.819257 0.496460 1.918973 -3.425536 -2.227870 0.620566 -12.023446 -6.584170 -3.262633 -11.114725 3.499270 -3.705149 3.393843 2.106175 -1.821284 3.317289 0.000000 0.000000 0.000000 93.420703 -32.501568 26.690360 20.514318 -31.256785 5.795943 -7.320715 15.196645 41.852885 0.000000 0.000000 0.000000 -7.125000 0.000000 0.000000 -21.541098 -9.602332 -26.619995 0.000000 0.000000 0.000000 -101.770325 -34.992977 -30.387857 -18.837677 -29.215835 -4.951721 3.850999 5.195629 51.045896 0.000000 0.000000 0.000000 7.125000 0.000000 0.000000 69.818679 69.350716 -48.022030
